<?xml version="1.0" encoding="utf-8"?>
<!-- Generator: Adobe Illustrator 15.0.2, SVG Export Plug-In . SVG Version: 6.00 Build 0)  -->
<!DOCTYPE svg PUBLIC "-//W3C//DTD SVG 1.1//EN" "http://www.w3.org/Graphics/SVG/1.1/DTD/svg11.dtd">
<svg version="1.1" id="Layer_1" xmlns="http://www.w3.org/2000/svg" xmlns:xlink="http://www.w3.org/1999/xlink" x="0px" y="0px"
	 width="165.252px" height="115.879px" viewBox="0 0 165.252 115.879" enable-background="new 0 0 165.252 115.879"
	 xml:space="preserve">
<g>
	<polygon fill="#EF3E42" points="14.378,37.193 14.142,37.613 98.426,38.098 99.03,37.215 	"/>
	<polygon fill="#EF3E42" points="16.999,33.352 16.741,33.793 99.325,34.023 98.293,33.102 	"/>
	<polygon fill="#EF3E42" points="100.405,35.199 15.431,35.305 15.194,35.725 99.799,36.082 	"/>
	<polygon fill="#EF3E42" points="96.274,41.254 11.434,41.381 11.176,41.82 95.674,42.137 	"/>
	<polygon fill="#EF3E42" points="94.78,43.428 9.887,43.533 9.65,43.953 94.186,44.311 	"/>
	<polygon fill="#EF3E42" points="93.305,45.604 8.303,45.623 8.066,46.043 92.68,46.527 	"/>
	<polygon fill="#EF3E42" points="90.868,49.189 5.69,49.316 5.433,49.756 90.231,50.113 	"/>
	<polygon fill="#EF3E42" points="4.215,51.762 3.979,52.182 88.579,52.539 89.18,51.658 	"/>
	<polygon fill="#EF3E42" points="87.686,53.832 2.775,53.854 2.539,54.273 87.055,54.756 	"/>
	<polygon fill="#EF3E42" points="23.065,25.145 22.808,25.584 90.262,25.941 89.225,25.018 	"/>
	<polygon fill="#EF3E42" points="21.589,27.59 21.353,28.01 92.981,28.367 91.993,27.486 	"/>
	<polygon fill="#EF3E42" points="94.43,29.66 20.149,29.682 19.913,30.102 95.456,30.584 	"/>
	<polygon fill="#00539F" points="36.534,60.039 68.115,60.039 31.58,115.6 0,115.6 36.534,60.039 	"/>
	<polygon fill="#00539F" points="86.26,22.369 108.538,22.369 124.625,0 124.625,22.369 149.377,22.369 125.864,35.066 
		125.864,56.83 110.393,43.529 85.641,56.83 100.493,35.066 86.26,22.369 	"/>
	<g>
		<path fill="#00539F" d="M81.292,72.742l-0.361,1.77h-2.94l-1.672,8.236h-2.033l1.674-8.236h-2.941l0.359-1.77H81.292z"/>
		<path fill="#00539F" d="M85.051,80.574c-0.773,1.602-2.176,2.369-3.68,2.369c-2.479,0-3.251-1.533-2.741-4.041
			c0.218-1.074,1.157-3.764,4.233-3.764c1.408,0,3.236,0.67,2.541,4.098l-0.068,0.334h-4.945c-0.111,0.879-0.016,1.812,1.326,1.812
			c0.527,0,1.127-0.279,1.383-0.809H85.051z M83.643,78.303c0.123-1.074-0.414-1.561-1.146-1.561c-0.895,0-1.486,0.584-1.793,1.561
			H83.643z"/>
		<path fill="#00539F" d="M88.907,75.334l0.781,2.16l1.631-2.16h2.236l-3.111,3.637l1.686,3.777h-2.344l-0.793-2.23l-1.701,2.23
			h-2.289l3.221-3.777l-1.619-3.637H88.907z"/>
		<path fill="#00539F" d="M99.881,77.342l-0.789,3.887c-0.139,0.684-0.148,1.129,0.17,1.227l-0.059,0.293H97.17
			c-0.072-0.307-0.033-0.572-0.012-0.879c-0.83,0.754-1.6,1.074-2.521,1.074c-1.232,0-2.074-0.725-1.783-2.16
			c0.246-1.213,1.086-2.146,2.582-2.369l1.689-0.25c0.682-0.084,0.812-0.391,0.857-0.613c0.137-0.67-0.355-0.852-1.02-0.852
			c-0.799,0-1.221,0.336-1.43,1.031h-1.828c0.582-1.936,1.826-2.592,3.697-2.592C98.948,75.139,100.219,75.682,99.881,77.342z
			 M96.768,79.459l-0.703,0.125c-0.504,0.084-1.133,0.307-1.289,1.074c-0.117,0.584,0.213,0.891,0.727,0.891
			c0.963,0,1.812-0.711,1.953-1.406c0,0,0.164-0.809,0.205-1.004C97.483,79.277,97.09,79.404,96.768,79.459z"/>
		<path fill="#00539F" d="M105.333,77.592c0.053-0.795-0.426-0.975-1.09-0.975c-0.42,0-1.166,0.068-1.293,0.695
			c-0.074,0.363,0.252,0.559,0.875,0.697l1.254,0.293c1.398,0.32,1.973,1.031,1.754,2.104c-0.428,2.105-2.506,2.537-3.658,2.537
			c-1.652,0-3.309-0.586-2.961-2.564h1.951c-0.152,0.684,0.252,1.088,1.35,1.088c0.963,0,1.303-0.475,1.359-0.754
			c0.082-0.404-0.25-0.57-1.17-0.779l-0.84-0.195c-1.074-0.252-2.113-0.738-1.832-2.119c0.221-1.086,1.168-2.48,3.416-2.48
			c1.451,0,3.023,0.391,2.74,2.453H105.333z"/>
	</g>
	<g>
		<path fill="#00539F" d="M60.957,86.713c2.843,0.014,3.493,2.215,2.975,4.766c-0.498,2.453-2.067,5.24-5.089,5.24h-4.228
			l2.033-10.006H60.957z M56.958,94.99h2.005c1.748,0,2.584-1.979,2.873-3.4c0.292-1.436,0.312-3.135-1.501-3.148h-2.046
			L56.958,94.99z"/>
		<path fill="#00539F" d="M70.613,94.545c-0.773,1.602-2.176,2.369-3.68,2.369c-2.479,0-3.252-1.533-2.742-4.041
			c0.218-1.074,1.157-3.764,4.233-3.764c1.41,0,3.238,0.67,2.541,4.098l-0.066,0.334h-4.947c-0.11,0.879-0.016,1.812,1.326,1.812
			c0.529,0,1.127-0.279,1.385-0.809H70.613z M69.205,92.273c0.123-1.074-0.416-1.561-1.146-1.561c-0.895,0-1.488,0.584-1.794,1.561
			H69.205z"/>
		<path fill="#00539F" d="M74.304,90.377h0.027c0.471-0.584,1.139-1.268,2.412-1.268c1.586,0,2.739,1.254,2.22,3.818
			c-0.415,2.035-1.706,3.986-3.86,3.986c-1.314,0-1.639-0.738-1.785-1.143h-0.027l-0.779,3.832h-1.896l2.092-10.299h1.816
			L74.304,90.377z M74.968,95.311c1.152,0,1.811-1.24,2.02-2.271c0.238-1.17,0.023-2.242-1.156-2.242
			c-1.301,0-1.855,1.197-2.096,2.383C73.484,94.42,73.857,95.311,74.968,95.311z"/>
		<path fill="#00539F" d="M86.188,91.312l-0.791,3.887c-0.139,0.684-0.148,1.129,0.172,1.227l-0.061,0.293h-2.031
			c-0.074-0.307-0.033-0.572-0.012-0.879c-0.83,0.754-1.6,1.074-2.521,1.074c-1.232,0-2.074-0.725-1.783-2.16
			c0.246-1.213,1.086-2.146,2.582-2.369l1.689-0.25c0.682-0.084,0.811-0.391,0.857-0.613c0.135-0.67-0.357-0.852-1.02-0.852
			c-0.801,0-1.221,0.336-1.43,1.031h-1.83c0.584-1.936,1.828-2.592,3.697-2.592C85.252,89.109,86.524,89.652,86.188,91.312z
			 M83.075,93.43l-0.703,0.125c-0.504,0.084-1.133,0.307-1.289,1.074c-0.119,0.584,0.213,0.891,0.727,0.891
			c0.963,0,1.811-0.711,1.953-1.406c0,0,0.164-0.809,0.203-1.004C83.788,93.248,83.397,93.375,83.075,93.43z"/>
		<path fill="#00539F" d="M92.225,89.137l-0.402,1.98c-0.115-0.029-0.346-0.029-0.469-0.029c-1.002,0-1.885,0.35-2.178,1.785
			l-0.781,3.846h-1.896l1.506-7.414h1.816l-0.264,1.297c0.049-0.043,0.014,0,0.014,0c0.598-0.809,1.17-1.492,2.281-1.492
			C91.973,89.109,92.106,89.123,92.225,89.137z"/>
		<path fill="#00539F" d="M96.096,87.299l-0.408,2.006h1.178l-0.283,1.395h-1.178l-0.785,3.859
			c-0.043,0.209-0.125,0.488-0.043,0.613c0.051,0.084,0.328,0.182,0.729,0.152c0.246-0.014,0.344-0.027,0.344-0.027l-0.301,1.479
			c-0.328,0.014-0.643,0.027-0.953,0.027c-1.031,0-2.117-0.057-1.82-1.52l0.932-4.584h-0.975l0.283-1.395h0.975l0.408-2.006H96.096z
			"/>
		<path fill="#00539F" d="M103.481,90.295c0.645-0.768,1.311-1.186,2.191-1.186c1.342,0,2.316,0.809,1.971,2.51l-1.037,5.1h-1.896
			l0.932-4.584c0.133-0.656,0.051-1.381-0.75-1.381c-0.881,0-1.402,0.572-1.584,1.463l-0.914,4.502h-1.898l0.953-4.682
			c0.148-0.74,0.002-1.283-0.879-1.283c-0.771,0-1.277,0.488-1.465,1.408l-0.926,4.557h-1.896l1.506-7.414h1.816l-0.221,1.088
			c0.018-0.029,0.027,0,0.027,0c0.438-0.627,1.127-1.283,2.318-1.283C102.706,89.109,103.157,89.486,103.481,90.295z"/>
		<path fill="#00539F" d="M114.704,94.545c-0.771,1.602-2.174,2.369-3.68,2.369c-2.479,0-3.252-1.533-2.742-4.041
			c0.219-1.074,1.158-3.764,4.234-3.764c1.408,0,3.238,0.67,2.541,4.098l-0.068,0.334h-4.945c-0.111,0.879-0.016,1.812,1.326,1.812
			c0.527,0,1.127-0.279,1.383-0.809H114.704z M113.295,92.273c0.123-1.074-0.414-1.561-1.146-1.561
			c-0.895,0-1.486,0.584-1.793,1.561H113.295z"/>
		<path fill="#00539F" d="M122.881,91.646l-1.031,5.072h-1.896l0.93-4.57c0.203-1.004-0.15-1.395-0.924-1.395
			c-0.895,0-1.643,0.613-1.863,1.701l-0.867,4.264h-1.896l1.508-7.414h1.814l-0.221,1.088c0.033-0.029,0.027,0,0.027,0
			c0.586-0.754,1.291-1.283,2.428-1.283C122.34,89.109,123.223,89.959,122.881,91.646z"/>
		<path fill="#00539F" d="M127.383,87.299l-0.408,2.006h1.18l-0.283,1.395h-1.18l-0.785,3.859c-0.041,0.209-0.125,0.488-0.043,0.613
			c0.051,0.084,0.33,0.182,0.729,0.152c0.246-0.014,0.344-0.027,0.344-0.027l-0.301,1.479c-0.328,0.014-0.643,0.027-0.953,0.027
			c-1.029,0-2.117-0.057-1.818-1.52l0.932-4.584h-0.977l0.283-1.395h0.977l0.406-2.006H127.383z"/>
	</g>
	<g>
		<path fill="#00539F" d="M45.623,113.189c-2.032,0-3.399-1.338-2.879-3.902c0.541-2.662,2.541-3.902,4.465-3.902
			c2.047,0,3.434,1.311,2.906,3.902C49.611,111.768,47.778,113.189,45.623,113.189z M46.875,107.029
			c-1.409,0-1.976,1.254-2.18,2.258c-0.229,1.129-0.079,2.258,1.275,2.258c1.519,0,2.021-1.408,2.193-2.258
			C48.394,108.158,48.257,107.029,46.875,107.029z"/>
		<path fill="#00539F" d="M55.86,102.891l-0.32,1.574h-0.394c-0.217,0-0.428-0.027-0.643,0.098c-0.169,0.098-0.25,0.363-0.275,0.488
			l-0.107,0.529h1.232l-0.282,1.395h-1.233l-1.224,6.02h-1.896l1.223-6.02h-1.043l0.283-1.395h1.043
			c0.085-0.418,0.147-0.725,0.147-0.725c0.145-0.711,0.529-1.338,1.172-1.699c0.444-0.252,0.913-0.293,1.51-0.293
			C55.323,102.863,55.595,102.863,55.86,102.891z"/>
		<path fill="#00539F" d="M67.412,102.988l-0.359,1.77h-2.94l-1.674,8.236h-2.033l1.674-8.236h-2.94l0.36-1.77H67.412z"/>
		<path fill="#00539F" d="M70.253,105.412l-0.402,1.98c-0.117-0.029-0.348-0.029-0.469-0.029c-1.004,0-1.887,0.35-2.18,1.785
			l-0.781,3.846h-1.896l1.506-7.414h1.816l-0.264,1.297c0.049-0.043,0.014,0,0.014,0c0.598-0.809,1.17-1.492,2.281-1.492
			C70.001,105.385,70.134,105.398,70.253,105.412z"/>
		<path fill="#00539F" d="M76.478,107.588l-0.791,3.887c-0.139,0.684-0.148,1.129,0.172,1.227l-0.061,0.293h-2.031
			c-0.074-0.307-0.033-0.572-0.012-0.879c-0.83,0.754-1.602,1.074-2.521,1.074c-1.234,0-2.076-0.725-1.783-2.16
			c0.246-1.213,1.086-2.146,2.58-2.369l1.691-0.25c0.682-0.084,0.811-0.391,0.855-0.613c0.137-0.67-0.355-0.852-1.02-0.852
			c-0.799,0-1.219,0.336-1.428,1.031H70.3c0.584-1.936,1.828-2.592,3.697-2.592C75.542,105.385,76.814,105.928,76.478,107.588z
			 M73.365,109.705l-0.703,0.125c-0.506,0.084-1.133,0.307-1.289,1.074c-0.119,0.584,0.211,0.891,0.727,0.891
			c0.963,0,1.811-0.711,1.953-1.406c0,0,0.164-0.809,0.203-1.004C74.078,109.523,73.687,109.65,73.365,109.705z"/>
		<path fill="#00539F" d="M84.35,107.922l-1.031,5.072h-1.896l0.928-4.57c0.205-1.004-0.15-1.395-0.922-1.395
			c-0.895,0-1.643,0.613-1.863,1.701l-0.866,4.264h-1.896l1.506-7.414h1.815l-0.221,1.088c0.033-0.029,0.027,0,0.027,0
			c0.586-0.754,1.291-1.283,2.428-1.283C83.807,105.385,84.692,106.234,84.35,107.922z"/>
		<path fill="#00539F" d="M89.936,107.838c0.053-0.795-0.426-0.975-1.09-0.975c-0.42,0-1.166,0.068-1.293,0.695
			c-0.074,0.363,0.252,0.559,0.875,0.697l1.254,0.293c1.398,0.32,1.973,1.031,1.754,2.104c-0.428,2.105-2.506,2.537-3.658,2.537
			c-1.652,0-3.309-0.586-2.961-2.564h1.951c-0.152,0.684,0.252,1.088,1.35,1.088c0.963,0,1.303-0.475,1.359-0.754
			c0.082-0.404-0.25-0.57-1.17-0.779l-0.84-0.195c-1.074-0.252-2.113-0.738-1.832-2.119c0.221-1.086,1.168-2.48,3.416-2.48
			c1.451,0,3.023,0.391,2.74,2.453H89.936z"/>
		<path fill="#00539F" d="M95.135,106.654h0.027c0.471-0.586,1.139-1.27,2.412-1.27c1.586,0,2.74,1.254,2.219,3.818
			c-0.414,2.035-1.703,3.986-3.859,3.986c-1.314,0-1.637-0.738-1.785-1.143h-0.027l-0.779,3.832h-1.896l2.092-10.299h1.816
			L95.135,106.654z M95.799,111.586c1.152,0,1.811-1.24,2.021-2.271c0.236-1.17,0.021-2.242-1.158-2.242
			c-1.301,0-1.855,1.197-2.096,2.383C94.315,110.695,94.688,111.586,95.799,111.586z"/>
		<path fill="#00539F" d="M103.563,113.189c-2.031,0-3.4-1.338-2.879-3.902c0.541-2.662,2.541-3.902,4.465-3.902
			c2.047,0,3.434,1.311,2.906,3.902C107.551,111.768,105.717,113.189,103.563,113.189z M104.815,107.029
			c-1.408,0-1.975,1.254-2.18,2.258c-0.229,1.129-0.078,2.258,1.275,2.258c1.518,0,2.021-1.408,2.193-2.258
			C106.334,108.158,106.198,107.029,104.815,107.029z"/>
		<path fill="#00539F" d="M113.803,105.412l-0.402,1.98c-0.117-0.029-0.348-0.029-0.469-0.029c-1.004,0-1.887,0.35-2.178,1.785
			l-0.783,3.846h-1.896l1.506-7.414h1.816l-0.264,1.297c0.049-0.043,0.014,0,0.014,0c0.598-0.809,1.17-1.492,2.281-1.492
			C113.551,105.385,113.684,105.398,113.803,105.412z"/>
		<path fill="#00539F" d="M117.944,103.574l-0.408,2.006h1.178l-0.283,1.395h-1.178l-0.785,3.859
			c-0.041,0.209-0.125,0.488-0.043,0.613c0.051,0.084,0.33,0.182,0.729,0.152c0.246-0.014,0.344-0.027,0.344-0.027l-0.301,1.479
			c-0.328,0.014-0.643,0.027-0.953,0.027c-1.031,0-2.117-0.057-1.818-1.52l0.932-4.584h-0.977l0.283-1.395h0.977l0.406-2.006
			H117.944z"/>
		<path fill="#00539F" d="M125.083,107.588l-0.791,3.887c-0.139,0.684-0.148,1.129,0.17,1.227l-0.059,0.293h-2.033
			c-0.072-0.307-0.033-0.572-0.01-0.879c-0.832,0.754-1.602,1.074-2.521,1.074c-1.234,0-2.076-0.725-1.785-2.16
			c0.248-1.213,1.088-2.146,2.582-2.369l1.691-0.25c0.682-0.084,0.811-0.391,0.855-0.613c0.137-0.67-0.355-0.852-1.02-0.852
			c-0.799,0-1.219,0.336-1.428,1.031h-1.83c0.584-1.936,1.828-2.592,3.697-2.592C124.147,105.385,125.418,105.928,125.083,107.588z
			 M121.967,109.705l-0.701,0.125c-0.506,0.084-1.133,0.307-1.289,1.074c-0.119,0.584,0.211,0.891,0.727,0.891
			c0.961,0,1.811-0.711,1.953-1.406c0,0,0.164-0.809,0.203-1.004C122.682,109.523,122.292,109.65,121.967,109.705z"/>
		<path fill="#00539F" d="M129.448,103.574l-0.408,2.006h1.18l-0.283,1.395h-1.18l-0.785,3.859
			c-0.041,0.209-0.125,0.488-0.043,0.613c0.051,0.084,0.33,0.182,0.729,0.152c0.246-0.014,0.344-0.027,0.344-0.027l-0.301,1.479
			c-0.328,0.014-0.643,0.027-0.953,0.027c-1.029,0-2.117-0.057-1.818-1.52l0.932-4.584h-0.977l0.283-1.395h0.977l0.408-2.006
			H129.448z"/>
		<path fill="#00539F" d="M133.104,105.58l-1.506,7.414h-1.896l1.506-7.414H133.104z M133.651,102.891l-0.367,1.812h-1.898
			l0.369-1.812H133.651z"/>
		<path fill="#00539F" d="M136.356,113.189c-2.033,0-3.4-1.338-2.879-3.902c0.539-2.662,2.539-3.902,4.465-3.902
			c2.045,0,3.432,1.311,2.906,3.902C140.344,111.768,138.51,113.189,136.356,113.189z M137.608,107.029
			c-1.41,0-1.977,1.254-2.18,2.258c-0.23,1.129-0.08,2.258,1.275,2.258c1.518,0,2.02-1.408,2.193-2.258
			C139.125,108.158,138.989,107.029,137.608,107.029z"/>
		<path fill="#00539F" d="M148.428,107.922l-1.031,5.072H145.5l0.93-4.57c0.203-1.004-0.15-1.395-0.924-1.395
			c-0.895,0-1.643,0.613-1.863,1.701l-0.865,4.264h-1.898l1.508-7.414h1.814l-0.221,1.088c0.033-0.029,0.027,0,0.027,0
			c0.586-0.754,1.291-1.283,2.43-1.283C147.887,105.385,148.772,106.234,148.428,107.922z"/>
	</g>
</g>
<g>
	<path fill="#00539F" d="M163.579,21.265c-1.084,1.051-2.387,1.575-3.904,1.575c-1.568,0-2.892-0.538-3.966-1.611
		c-1.074-1.075-1.612-2.397-1.612-3.967c0-1.63,0.58-2.984,1.74-4.064c1.091-1.01,2.369-1.514,3.838-1.514
		c1.539,0,2.854,0.545,3.944,1.635c1.089,1.09,1.634,2.404,1.634,3.943C165.252,18.847,164.695,20.182,163.579,21.265z
		 M156.397,14.03c-0.888,0.907-1.331,1.985-1.331,3.231c0,1.292,0.449,2.39,1.354,3.292c0.897,0.905,1.981,1.355,3.254,1.355
		c1.266,0,2.349-0.454,3.247-1.362c0.896-0.912,1.349-2.008,1.349-3.285c0-1.242-0.447-2.319-1.342-3.231
		c-0.902-0.93-1.988-1.394-3.254-1.394C158.391,12.637,157.3,13.101,156.397,14.03z M157.23,20.366v-6.185
		c0.384,0,0.958,0.001,1.723,0.004c0.763,0.004,1.188,0.005,1.275,0.012c0.487,0.035,0.895,0.142,1.219,0.317
		c0.549,0.302,0.823,0.795,0.823,1.475c0,0.52-0.145,0.896-0.437,1.126c-0.289,0.231-0.646,0.371-1.07,0.417
		c0.39,0.08,0.684,0.199,0.88,0.355c0.362,0.294,0.545,0.757,0.545,1.388v0.553c0,0.06,0.003,0.12,0.012,0.181
		c0.008,0.062,0.023,0.121,0.045,0.182l0.056,0.176h-1.544c-0.051-0.198-0.084-0.482-0.103-0.856
		c-0.018-0.374-0.051-0.626-0.1-0.757c-0.082-0.218-0.234-0.369-0.455-0.455c-0.123-0.049-0.307-0.084-0.555-0.098l-0.354-0.022
		h-0.34v2.188H157.23z M160.181,15.399c-0.223-0.085-0.535-0.128-0.938-0.128h-0.393v1.794h0.628c0.379,0,0.675-0.077,0.885-0.229
		c0.211-0.15,0.317-0.396,0.317-0.731C160.68,15.766,160.514,15.532,160.181,15.399z"/>
</g>
</svg>
